<?xml version="1.0" encoding="UTF-8"?>
<svg xmlns="http://www.w3.org/2000/svg" version="1.1" viewBox="0 0 283.5 283.5">
  <defs>
    <style>
      .cls-1 {
        fill: #8338ec;
      }
    </style>
  </defs>
  <!-- Generator: Adobe Illustrator 28.6.0, SVG Export Plug-In . SVG Version: 1.2.0 Build 709)  -->
  <g>
    <g id="Layer_1">
      <g id="Layer_1-2" data-name="Layer_1">
        <g id="Layer_1-2">
          <path class="cls-1" d="M141.9,259.5c-54.6-.5-101.9-35.7-115.8-88.1-13.3-49.9,7.3-101.5,52.4-128.9,48.3-29.3,107.7-22.7,148.1,16.8,25.1,24.5,36.4,54.9,34.4,90.3-3,51.7-42.5,97.1-96.4,107.1-7.5,1.4-15.1,1.8-22.7,2.7h0ZM204.6,141.5c.4-.3.7-.6,1.1-.8-.6-1.6-1-3.4-1.9-4.9-2.8-5.1-5.5-10.3-8.6-15.2-2.7-4.1-2.7-8.1-1.6-12.8,5.4-23.3,2.1-44.7-14.8-62.7-7.2-7.7-15.9-14.3-26.3-15.3-37.5-3.4-70,8.5-95.7,36.3-40.4,43.8-40.2,107.8.2,151.6,16,17.4,36,28.4,59.1,33.7-4.7-4.9-9.4-9.6-13.7-14.6-13.6-15.7-21.4-33.3-16.5-54.6.7-3,0-4.7-1.8-7-5.6-7.1-10.7-14.5-16-21.8.5-.5,1-1.1,1.5-1.6,9.2,4,18.5,8.1,27.7,12.1l.6-1.2c-5.4-4.2-10.8-8.4-16.3-12.6,0-.4.2-.9.3-1.3,6.4.6,12.8.6,19.1,1.9,3.2.6,5.1.3,7.6-1.4,9.2-6.4,18.8-12,30.3-13.3,5.3-.6,11.1.8,15.9-1,9.9-3.6,17.6,0,25.9,4.6,4.4,2.5,9.7,3.4,14.5,5,.5-.8,1-1.5,1.5-2.3-5.6-5-11.2-10-16.8-15,.3-.3.5-.6.8-.9,8,4.9,16,9.9,24,14.9h0v.2ZM143,184.3c-7.3,0-13.9,6.4-13.9,13.7s6.6,13.7,13.9,13.7,13.7-6.2,13.7-13.7-6.3-13.7-13.7-13.7Z"/>
          <path class="cls-1" d="M156.9,83.9c-.2,7.7-6.5,13.8-14.1,13.7-7.6,0-14-6.7-13.9-14.2,0-7.8,6.6-14.1,14.6-13.9,7.7.2,13.6,6.5,13.5,14.4h-.1Z"/>
        </g>
      </g>
    </g>
  </g>
</svg>